<svg width="33" height="33" viewBox="0 0 33 33" fill="none" xmlns="http://www.w3.org/2000/svg">
<path d="M7.0715 12.9641H18.8572C19.4824 12.9641 20.0819 13.2125 20.524 13.6545C20.966 14.0966 21.2144 14.6961 21.2144 15.3213V27.107C21.2144 28.3572 20.7177 29.5563 19.8336 30.4404C18.9495 31.3246 17.7504 31.8213 16.5001 31.8213H9.42864C8.17834 31.8213 6.97924 31.3246 6.09515 30.4404C5.21103 29.5563 4.71436 28.3572 4.71436 27.107V15.3213C4.71436 14.6961 4.9627 14.0966 5.40474 13.6545C5.8468 13.2125 6.44634 12.9641 7.0715 12.9641Z" stroke="white" stroke-linecap="round" stroke-linejoin="round"/>
<path d="M21.2144 15.3213H22.3929C23.9557 15.3213 25.4546 15.9421 26.5599 17.0473C27.6649 18.1524 28.2858 19.6513 28.2858 21.2141C28.2858 22.777 27.6649 24.2758 26.5599 25.3811C25.4546 26.4861 23.9557 27.107 22.3929 27.107H21.2144" stroke="white" stroke-linecap="round" stroke-linejoin="round"/>
<path d="M9.42871 1.17847V5.89275" stroke="white" stroke-linecap="round" stroke-linejoin="round"/>
<path d="M16.5 1.17847V5.89275" stroke="white" stroke-linecap="round" stroke-linejoin="round"/>
</svg>
